<?xml version="1.0" encoding="UTF-8"?>
<svg xmlns="http://www.w3.org/2000/svg" width="44" height="38" fill="none">
  <path d="M10.415 7.704C5.813 7.704.86 6.57.86 4.078c0-2.49 4.953-3.624 9.555-3.624 4.602 0 9.555 1.134 9.555 3.624 0 2.492-4.953 3.626-9.555 3.626zm0-5.505c-5.367 0-7.796 1.442-7.796 1.879 0 .439 2.43 1.878 7.796 1.878 5.367 0 7.796-1.442 7.796-1.878 0-.437-2.43-1.879-7.796-1.879z" fill="#E53323"></path>
  <path d="M10.415 11.569C5.667 11.569.86 10.239.86 7.7V4.264c0-.483.393-.873.88-.873.486 0 .879.39.879.873V7.7c0 .634 2.652 2.12 7.796 2.12s7.796-1.486 7.796-2.12V4.264c0-.483.393-.873.88-.873.486 0 .879.39.879.873V7.7c0 2.539-4.807 3.868-9.555 3.868z" fill="#E53323"></path>
  <path d="M10.415 15.797c-4.602 0-9.555-1.134-9.555-3.623 0-.483.393-.873.88-.873.486 0 .879.39.879.873 0 .439 2.43 1.878 7.796 1.878 5.367 0 7.796-1.442 7.796-1.878 0-.483.393-.873.88-.873.486 0 .879.39.879.873 0 2.49-4.953 3.623-9.555 3.623z" fill="#E53323"></path>
  <path d="M10.415 19.662C5.813 19.662.86 18.48.86 15.876v-3.344c0-.483.393-.873.88-.873.486 0 .879.39.879.873v3.347c0 .593 2.731 2.041 7.796 2.041s7.796-1.448 7.796-2.041v-3.347c0-.483.393-.873.88-.873.486 0 .879.39.879.873v3.347c0 2.6-4.953 3.783-9.555 3.783zm23.583 5.831c-4.602 0-9.555-1.134-9.555-3.623 0-2.49 4.953-3.624 9.555-3.624 4.601 0 9.555 1.134 9.555 3.624 0 2.489-4.954 3.623-9.555 3.623zm0-5.502c-5.367 0-7.797 1.442-7.797 1.879 0 .439 2.43 1.878 7.797 1.878 5.366 0 7.796-1.442 7.796-1.878 0-.437-2.433-1.879-7.796-1.879z" fill="#E53323"></path>
  <path d="M33.998 29.358c-4.749 0-9.555-1.33-9.555-3.865v-3.438c0-.482.392-.872.879-.872.486 0 .88.39.88.872v3.438c0 .634 2.652 2.12 7.796 2.12 5.143 0 7.796-1.486 7.796-2.12v-3.438c0-.482.393-.872.88-.872.486 0 .879.39.879.872v3.438c0 2.539-4.807 3.865-9.555 3.865z" fill="#E53323"></path>
  <path d="M33.998 33.59c-4.602 0-9.555-1.135-9.555-3.624 0-.483.392-.873.879-.873.486 0 .88.39.88.873 0 .439 2.429 1.878 7.796 1.878 5.366 0 7.796-1.442 7.796-1.878 0-.483.393-.873.88-.873.486 0 .879.39.879.873 0 2.489-4.954 3.623-9.555 3.623z" fill="#E53323"></path>
  <path d="M33.998 37.454c-4.602 0-9.555-1.183-9.555-3.786V30.32c0-.483.392-.873.879-.873.486 0 .88.39.88.873v3.347c0 .593 2.73 2.041 7.796 2.041 5.064 0 7.796-1.448 7.796-2.041V30.32c0-.483.393-.873.88-.873.486 0 .879.39.879.873v3.347c0 2.6-4.954 3.786-9.555 3.786zM10.415 24.257c-4.602 0-9.555-1.134-9.555-3.623 0-.483.393-.873.88-.873.486 0 .879.39.879.873 0 .439 2.43 1.878 7.796 1.878 5.367 0 7.796-1.442 7.796-1.878 0-.483.393-.873.88-.873.486 0 .879.39.879.873 0 2.489-4.953 3.623-9.555 3.623z" fill="#E53323"></path>
  <path d="M10.415 28.122c-4.748 0-9.555-1.314-9.555-3.824v-3.394c0-.483.393-.872.88-.872.486 0 .879.39.879.872v3.394c0 .622 2.652 2.08 7.796 2.08s7.796-1.458 7.796-2.08v-3.394c0-.483.393-.872.88-.872.486 0 .879.39.879.872v3.394c0 2.51-4.807 3.824-9.555 3.824zm0 4.595c-4.602 0-9.555-1.134-9.555-3.624 0-.483.393-.872.88-.872.486 0 .879.39.879.872 0 .44 2.43 1.879 7.796 1.879 5.367 0 7.796-1.443 7.796-1.879 0-.483.393-.872.88-.872.486 0 .879.39.879.872 0 2.49-4.953 3.624-9.555 3.624z" fill="#E53323"></path>
  <path d="M10.415 36.582c-4.748 0-9.555-1.335-9.555-3.886v-3.46c0-.483.393-.873.88-.873.486 0 .879.39.879.873v3.46c0 .64 2.652 2.14 7.796 2.14s7.796-1.5 7.796-2.14v-3.46c0-.483.393-.873.88-.873.486 0 .879.39.879.873v3.46c0 2.55-4.807 3.886-9.555 3.886z" fill="#E53323"></path>
</svg>
