<?xml version="1.0" encoding="UTF-8"?>
<svg xmlns="http://www.w3.org/2000/svg" width="29" height="42" fill="none">
  <g clip-path="url(#clip0)" fill="#5A5A5A">
    <path d="M22.428 42H7.293c-1.33 0-2.475-1.056-2.788-2.563l-3.56-17.15c-.234-1.13.033-2.303.72-3.138.543-.663 1.278-1.03 2.07-1.03H25.99c.792 0 1.526.367 2.07 1.03.684.835.953 2.008.72 3.137l-3.56 17.148C24.902 40.947 23.753 42 22.427 42zM3.732 19.556c-.47 0-.797.313-.948.497-.407.498-.57 1.24-.424 1.941l3.56 17.148c.174.836.74 1.42 1.375 1.42H22.43c.636 0 1.201-.584 1.375-1.42l3.56-17.148c.145-.7-.016-1.445-.423-1.94-.152-.187-.48-.498-.949-.498H3.733z"></path>
    <path d="M7.406 26.544a.72.72 0 01-.715-.632l-.86-6.988a.722.722 0 011.432-.175l.86 6.989a.72.72 0 01-.717.806zM9.293 41.9a.72.72 0 01-.715-.633l-1.24-10.07a.722.722 0 011.432-.175l1.24 10.07a.72.72 0 01-.628.8c-.028.007-.057.007-.089.007zm2.689-15.356a.721.721 0 01-.722-.704l-.144-6.988a.72.72 0 01.707-.732.72.72 0 01.737.703l.144 6.989a.72.72 0 01-.707.732h-.015zM11.91 42a.72.72 0 01-.722-.713l-.07-10.172a.72.72 0 01.718-.723h.004a.72.72 0 01.723.713l.07 10.172a.72.72 0 01-.718.723h-.005zm10.665-15.46c-.03 0-.058-.003-.09-.005a.72.72 0 01-.628-.8l.86-6.988a.72.72 0 01.804-.625.72.72 0 01.628.8l-.86 6.988a.72.72 0 01-.714.63zm-1.89 15.355c-.029 0-.058-.003-.09-.005a.72.72 0 01-.627-.8l1.24-10.07a.718.718 0 01.803-.625.72.72 0 01.629.8l-1.24 10.07a.719.719 0 01-.715.63zM17.996 26.54h-.015a.719.719 0 01-.707-.733l.144-6.989a.727.727 0 01.737-.703.72.72 0 01.707.732l-.144 6.989a.72.72 0 01-.722.703zm.072 15.455h-.005a.72.72 0 01-.717-.723l.07-10.171a.72.72 0 01.722-.713h.005c.4.002.72.325.717.722l-.07 10.172a.72.72 0 01-.722.713z"></path>
    <path d="M26.795 31.828H2.925l-1.395-6.72h26.66l-1.396 6.72zM4.1 30.392h21.517l.799-3.848H3.3l.8 3.848zm4.117-13.297c-.2 0-.4-.081-.542-.241-2.838-3.198-1.413-5.335-.156-7.221 1.377-2.065 2.8-4.2-.116-8.515a.714.714 0 01.198-.996.724.724 0 011.001.196c3.455 5.11 1.606 7.881.12 10.11-1.246 1.869-2.07 3.104.037 5.475a.713.713 0 01-.063 1.013.724.724 0 01-.479.18zm6.57 0c-.2 0-.4-.081-.542-.241-2.838-3.198-1.413-5.335-.156-7.221 1.377-2.065 2.802-4.2-.116-8.515a.714.714 0 01.197-.996.724.724 0 011.002.196c3.454 5.11 1.606 7.881.12 10.11-1.247 1.869-2.07 3.104.036 5.475a.713.713 0 01-.062 1.013.725.725 0 01-.48.18zm6.57.333a.72.72 0 01-.542-.242c-2.838-3.197-1.413-5.334-.157-7.22 1.377-2.066 2.8-4.2-.115-8.516a.714.714 0 01.197-.995.724.724 0 011.002.196c3.454 5.11 1.605 7.881.12 10.11-1.247 1.869-2.07 3.103.036 5.475a.713.713 0 01-.062 1.012.732.732 0 01-.48.18z"></path>
  </g>
  <defs>
    <clipPath id="clip0">
      <path fill="#fff" transform="translate(.86)" d="M0 0h28v42H0z"></path>
    </clipPath>
  </defs>
</svg>
