<?xml version="1.0" encoding="UTF-8"?>
<svg xmlns="http://www.w3.org/2000/svg" width="28" height="28" fill="none">
  <g clip-path="url(#clip0)" fill="#fff">
    <path d="M17.148 18.837c0 4.703-3.705 8.515-8.275 8.515-4.571 0-8.275-3.812-8.275-8.515 0-4.703 8.276-15.764 8.276-15.764s8.274 11.061 8.274 15.764zM20.75 20.2c-.612 0-1.109-.512-1.109-1.141 0-.63.497-1.142 1.11-1.142 2.552 0 4.629-2.136 4.629-4.762 0-1.818-2.558-6.064-4.626-9.013-1.037 1.486-2.756 4.074-3.795 6.317-.264.57-.925.81-1.479.538a1.155 1.155 0 01-.523-1.521c1.66-3.58 4.783-7.771 4.915-7.947L20.75.352l.88 1.175c.61.817 5.968 8.08 5.968 11.627 0 3.885-3.072 7.046-6.848 7.046z"></path>
  </g>
  <defs>
    <clipPath id="clip0">
      <path fill="#fff" transform="translate(.598 .352)" d="M0 0h27v27H0z"></path>
    </clipPath>
  </defs>
</svg>
