<?xml version="1.0" encoding="UTF-8"?>
<svg xmlns="http://www.w3.org/2000/svg" width="24" height="26" fill="none">
  <g clip-path="url(#clip0)" fill="#fff">
    <path d="M3.238 5.43h1.507v3.002h8.637V5.43h1.205c1.442 0 2.612-1.138 2.612-2.54 0-1.4-1.17-2.538-2.612-2.538H3.237c-1.44 0-2.61 1.138-2.61 2.54 0 1.402 1.17 2.538 2.612 2.538zm11.5 14.844h-1.356v-4.383H4.743v4.383H3.387c-1.442 0-2.612 1.138-2.612 2.54 0 1.402 1.17 2.54 2.612 2.54h11.35c1.441 0 2.611-1.138 2.611-2.54.002-1.404-1.168-2.54-2.61-2.54zm7.18-12.808c-.942 0-1.707.743-1.707 1.66v.925h-6.83v-.462H4.744v5.143h8.639v-.379h6.829v.925c0 .916.765 1.66 1.707 1.66.943 0 1.708-.744 1.708-1.66V9.126c0-.917-.764-1.66-1.708-1.66z"></path>
  </g>
  <defs>
    <clipPath id="clip0">
      <path fill="#fff" transform="translate(.626 .352)" d="M0 0h23v25H0z"></path>
    </clipPath>
  </defs>
</svg>
