<?xml version="1.0" encoding="UTF-8"?>
<svg xmlns="http://www.w3.org/2000/svg" width="17" height="27" fill="none">
  <path fill-rule="evenodd" clip-rule="evenodd" d="M.765 8.904c0 2.36 1.009 5.205 2.616 7.355 1.087 1.63 1.384 4.889 1.384 4.889h8s.148-3.111 1.383-4.89c1.608-2.15 2.617-4.994 2.617-7.354 0-4.448-3.582-8.053-8-8.053-4.419 0-8 3.605-8 8.053zm12.148 14.429a.74.74 0 00-.74-.741h-6.52a.74.74 0 000 1.482h6.52a.74.74 0 00.74-.741zm-1.926 1.333a.74.74 0 110 1.482H6.542a.74.74 0 110-1.482h4.445z" fill="#E42320"></path>
</svg>
