<svg width="17" height="25" fill="none" xmlns="http://www.w3.org/2000/svg"><mask id="a" fill="#fff"><path fill-rule="evenodd" clip-rule="evenodd" d="M11.86 19.276c2.775-3.977 4.94-7.079 4.94-10.418 0-4.65-3.76-8.42-8.4-8.42-4.64 0-8.4 3.77-8.4 8.42 0 3.448 2.077 6.412 5.034 10.63 1.032 1.473 2.17 3.098 3.366 4.95 1.185-1.901 2.37-3.599 3.46-5.162zM8.4 12.437a4.4 4.4 0 100-8.8 4.4 4.4 0 000 8.8z"/></mask><path d="M11.86 19.276l-.82-.572.82.572zm-6.826.213l-.819.574.82-.574zM8.4 24.437l-.84.543.855 1.324.834-1.338-.849-.529zm7.4-15.579c0 1.447-.467 2.893-1.315 4.505-.852 1.623-2.047 3.338-3.445 5.341l1.64 1.145c1.377-1.974 2.653-3.799 3.576-5.556.929-1.768 1.544-3.542 1.544-5.435h-2zm-7.4-7.42c4.085 0 7.4 3.32 7.4 7.42h2c0-5.2-4.206-9.42-9.4-9.42v2zM1 8.857c0-4.1 3.315-7.42 7.4-7.42v-2c-5.194 0-9.4 4.22-9.4 9.42h2zm4.853 10.057c-1.49-2.126-2.706-3.864-3.559-5.494C1.451 11.809 1 10.368 1 8.858h-2c0 1.938.587 3.703 1.522 5.49.925 1.769 2.226 3.622 3.693 5.715l1.638-1.148zm3.387 4.98c-1.207-1.87-2.356-3.51-3.387-4.98l-1.638 1.148c1.033 1.473 2.161 3.083 3.345 4.917l1.68-1.085zm1.8-5.19c-1.09 1.56-2.288 3.278-3.489 5.203l1.698 1.058c1.169-1.875 2.34-3.553 3.431-5.117l-1.64-1.145zm.76-10.668a3.4 3.4 0 01-3.4 3.4v2a5.4 5.4 0 005.4-5.4h-2zm-3.4-3.4a3.4 3.4 0 013.4 3.4h2a5.4 5.4 0 00-5.4-5.4v2zM5 8.037a3.4 3.4 0 013.4-3.4v-2a5.4 5.4 0 00-5.4 5.4h2zm3.4 3.4a3.4 3.4 0 01-3.4-3.4H3a5.4 5.4 0 005.4 5.4v-2z" fill="#5F5F5F" mask="url(#a)"/></svg>