<svg width="39" height="37" fill="none" xmlns="http://www.w3.org/2000/svg"><path d="M19.931 36.149h-.786c-6.347 0-12.124-4.126-14.227-10.09-1.36-.233-2.513-.93-3.287-1.995C.953 23.124.58 21.941.58 20.728c0-.604.092-1.184.273-1.729.488-1.462 1.675-2.314 3.269-2.347.268-3.899 1.79-7.782 4.247-10.764C11.1 2.568 14.663.638 18.404.454h.05L21.2.495c.018 0 .039 0 .057.003 3.666.322 7.474 2.513 10.19 5.864 2.488 3.068 3.778 6.75 3.615 10.23 1.54.07 2.686.914 3.164 2.343.18.544.273 1.127.273 1.731 0 1.213-.371 2.394-1.047 3.331-.767 1.063-1.915 1.76-3.267 1.994C32.1 31.995 26.312 36.15 19.931 36.15zM4.221 18.197c-.988 0-1.61.423-1.898 1.29a3.903 3.903 0 00-.194 1.239c0 .877.276 1.762.759 2.43.606.838 1.532 1.331 2.675 1.422.315.025.58.237.676.539 1.757 5.583 7.064 9.481 12.908 9.481h.787c5.875 0 11.19-3.924 12.929-9.543a.77.77 0 01.673-.542c1.138-.098 2.059-.59 2.66-1.427.48-.665.756-1.548.756-2.425 0-.439-.064-.854-.194-1.241-.288-.867-.91-1.29-1.898-1.29-.168 0-.346.013-.527.041a.771.771 0 01-.88-.859c.406-3.328-.76-6.966-3.204-9.98-2.453-3.018-5.851-4.997-9.1-5.291l-2.693-.039c-6.763.346-12.632 7.43-12.823 15.488a.773.773 0 01-.888.746 4.112 4.112 0 00-.523-.039z" fill="#5A5A5A"/><path d="M21.585 22.673a.782.782 0 01-.617-.304c-.41-.534-.843-.815-1.33-.854-.896-.078-1.753.694-1.763.702a.772.772 0 01-1.094-.034.772.772 0 01.034-1.094c.054-.051 1.341-1.249 2.949-1.117.936.075 1.754.565 2.435 1.458a.774.774 0 01-.614 1.243zm-2.056 8.61c-3.991 0-7.508-2.988-8.362-7.103a.777.777 0 011.182-.808c1.997 1.3 4.546 2.018 7.18 2.018 2.634 0 5.186-.717 7.18-2.018a.777.777 0 01.86.008c.257.176.384.49.322.797-.854 4.118-4.37 7.106-8.362 7.106zm-6.246-5.645c1.179 2.45 3.586 4.094 6.246 4.094 2.66 0 5.067-1.643 6.246-4.094-1.888.846-4.045 1.3-6.246 1.3-2.203.003-4.358-.454-6.246-1.3zm14.667-6.909a.772.772 0 01-.67-.387c-.408-.707-.906-1.11-1.523-1.229-1.385-.268-2.941.93-2.957.942a.775.775 0 01-.957-1.218c.085-.067 2.116-1.646 4.2-1.246 1.071.207 1.938.87 2.575 1.976a.774.774 0 01-.668 1.162zm-16.63 0a.775.775 0 01-.67-1.161c.638-1.107 1.502-1.77 2.573-1.977 2.085-.4 4.115 1.18 4.2 1.246a.775.775 0 01-.957 1.215c-.023-.017-1.576-1.212-2.956-.941-.617.119-1.115.521-1.523 1.228a.756.756 0 01-.668.39zM7.81 14.65c-2.402 0-4.716-.56-6.89-1.68a.774.774 0 01.706-1.375c10.702 5.513 21.33-5.911 21.435-6.027a.773.773 0 011.272.199c.16.34 3.978 8.34 11.848 6.452a.775.775 0 01.36 1.507 11.56 11.56 0 01-2.695.33c-5.718 0-9.152-4.636-10.39-6.685-1.107 1.063-3.372 3.05-6.375 4.69-3.156 1.724-6.283 2.588-9.27 2.588z" fill="#5A5A5A"/></svg>