<svg width="39" height="39" fill="none" xmlns="http://www.w3.org/2000/svg"><g clip-path="url(#clip0)" fill="#E53323"><path d="M30.493 39H27.14c-1.068 0-1.904-1.013-1.904-2.307v-2.676c-.887.166-1.787.27-2.693.306-1.098.115-2.246.153-3.424.115v2.258c0 1.294-.836 2.307-1.904 2.307h-3.353c-1.068 0-1.904-1.013-1.904-2.307v-3.37C5.811 31.69 1.301 28.87 1.107 28.747a.815.815 0 01-.38-.676l-.148-5.837a.832.832 0 01.293-.655.794.794 0 01.688-.17c.021.006 2.235.447 2.93-.7.871-1.442 2.869-2.723 3.786-3.26l-.548-7.922a.828.828 0 01.324-.717.797.797 0 01.77-.106c3.023 1.17 4.579 3.111 5.38 4.775.895-.43 1.846-.78 2.841-1.048a.808.808 0 01.99.583.825.825 0 01-.575 1.004 14.65 14.65 0 00-3.273 1.31.791.791 0 01-.671.047.812.812 0 01-.475-.484c-.46-1.27-1.455-2.925-3.601-4.102l.488 7.069a.825.825 0 01-.434.785c-.758.4-2.885 1.702-3.624 2.925-.865 1.429-2.561 1.615-3.65 1.566l.11 4.436c1.235.72 5.422 3.024 10.63 4.318a.82.82 0 01.618.797v4.006c0 .43.216.665.286.665h3.356c.07 0 .286-.235.286-.665v-3.12c0-.227.092-.443.256-.599a.804.804 0 01.607-.222c1.396.09 2.755.069 4.038-.068.02-.003.035-.003.054-.003a16.84 16.84 0 003.397-.479.801.801 0 01.693.15.83.83 0 01.31.647v3.694c0 .43.213.665.286.665H30.5c.07 0 .286-.235.286-.665v-6.332c0-.255.116-.496.316-.652 2.302-1.803 3.572-4.16 3.572-6.636 0-3.73-2.936-7.16-7.482-8.736a.823.823 0 01-.504-1.042.805.805 0 011.027-.512c5.21 1.806 8.576 5.846 8.576 10.29 0 2.879-1.377 5.594-3.885 7.684v5.936c-.01 1.295-.846 2.31-1.914 2.31z"/><path d="M10.01 22.517c0 .594-.475 1.076-1.06 1.076-.585 0-1.06-.482-1.06-1.076 0-.594.475-1.075 1.06-1.075a1.07 1.07 0 011.06 1.075zm12.371-9.159c-3.629 0-6.581-2.997-6.581-6.68C15.8 2.996 18.752 0 22.381 0c3.629 0 6.58 2.997 6.58 6.68 0 3.681-2.951 6.678-6.58 6.678zm0-11.716c-2.736 0-4.963 2.26-4.963 5.038 0 2.778 2.227 5.038 4.963 5.038s4.963-2.26 4.963-5.038c0-2.778-2.227-5.038-4.963-5.038zm12.712 19.614a.814.814 0 01-.799-.696.819.819 0 01.675-.938l2.677-.424a.811.811 0 01.924.684.819.819 0 01-.674.938l-2.677.424c-.043.006-.083.012-.127.012z"/></g><defs><clipPath id="clip0"><path fill="#fff" transform="translate(.579)" d="M0 0h38v39H0z"/></clipPath></defs></svg>