<svg width="47" height="42" fill="none" xmlns="http://www.w3.org/2000/svg"><path d="M19.748 41.454c-1.357 0-2.767-.268-4.15-.815C11.913 39.188 3.025 33.504.12 12.134L.008 11.3a.887.887 0 01.595-.957L30.14.5a.882.882 0 011.095 1.175l-.84 2.048a9.396 9.396 0 00-.706 3.573c0 5.792 5.169 11.105 6.787 12.627 2.334-1.019 5.201-2.184 7.912.182 2.457 2.146 2.234 5.551 2.151 6.831-.009.133-.02.298-.017.348l.029.638a.884.884 0 01-.471.821l-20.514 10.77a3.06 3.06 0 01-.139.138.861.861 0 01-.467.244c-1.504 1.033-3.309 1.56-5.213 1.56zM1.853 11.79l.015.11c2.779 20.441 10.978 25.76 14.378 27.095 2.916 1.148 5.916.854 8.029-.791a.911.911 0 01.144-.091l.07-.036c2.04-2.175 2.5-4.082 2.5-4.656 0-.921-.271-1.807-.786-2.56-1.222-1.793-3.423-2.352-5.236-1.334-1.813 1.021-2.502 2.428-1.843 3.767.533 1.08 1.801 1.681 2.717 1.29.162-.071.42-.35.488-.513a.884.884 0 011.663-.583c.112.26.197.68-.02 1.228-.25.624-.84 1.236-1.437 1.492-1.763.76-4.052-.218-4.997-2.13-.827-1.678-.657-4.28 2.56-6.087 2.632-1.478 5.81-.689 7.562 1.878a6.285 6.285 0 011.094 3.558c0 .182-.035 1.277-.82 2.849l16.829-8.835-.003-.083c-.006-.141.005-.306.02-.539.074-1.142.25-3.814-1.55-5.386-1.938-1.692-3.921-.82-6.22.186l-.35.153a.886.886 0 01-.936-.147c-1.301-1.148-7.797-7.226-7.797-14.328 0-1.457.283-2.884.84-4.241l.108-.265L1.853 11.79z" fill="#5A5A5A"/><path d="M20.443 29.658a.88.88 0 01-.388-1.675l15.286-7.485a.88.88 0 011.18.406.881.881 0 01-.406 1.18l-15.284 7.482a.884.884 0 01-.388.092zm7.834-7.464a.87.87 0 01-.35-.074L7.631 13.326a.884.884 0 01.703-1.622l20.297 8.797a.884.884 0 01.459 1.163.887.887 0 01-.813.53z" fill="#5A5A5A"/><path d="M9.135 23.377a.884.884 0 01-.795-1.268l3.776-7.765a.884.884 0 011.59.771L9.93 22.88a.888.888 0 01-.795.498zm12.188-5.424a.882.882 0 01-.806-1.242l3.213-7.273a.882.882 0 111.616.715l-3.217 7.273a.88.88 0 01-.806.527z" fill="#5A5A5A"/><path d="M20.91 24.887a.866.866 0 01-.358-.077l-9.94-4.43a.885.885 0 01-.447-1.165.885.885 0 011.166-.447l9.939 4.43a.885.885 0 01-.36 1.689z" fill="#5A5A5A"/></svg>