<svg width="46" height="45" fill="none" xmlns="http://www.w3.org/2000/svg"><g filter="url(#filter0_d)" fill="#E53323"><path d="M19.749 35.087h-8.482a2.772 2.772 0 01-2.766-2.77V16.986H5.429a.8.8 0 01-.498-.174c-.593-.471-.93-1.14-.93-1.836 0-.696.34-1.365.93-1.837L9.03 9.87V1.19c0-.616.5-1.114 1.112-1.114h4.817c.614 0 1.111.501 1.111 1.114v3.063L20.56.676c1.13-.901 2.902-.901 4.032 0l15.63 12.462c.59.472.93 1.14.93 1.837 0 .695-.338 1.365-.93 1.836a.8.8 0 01-.498.174h-3.075v3.105a.798.798 0 11-1.596 0v-3.905c0-.443.357-.8.798-.8h3.55a.665.665 0 00.155-.413c0-.208-.117-.416-.327-.586L23.598 1.925c-.546-.435-1.5-.435-2.046 0l-5.78 4.612a.8.8 0 01-1.295-.626V1.674h-3.851v8.579a.807.807 0 01-.3.626l-4.403 3.508c-.21.168-.327.379-.327.587 0 .14.053.282.154.413h3.551c.442 0 .798.357.798.8v16.13c0 .645.524 1.17 1.17 1.17h8.48a.8.8 0 010 1.6z"/><path d="M26.028 37a.572.572 0 01-.14-.017 9.807 9.807 0 01-2.51-1.008.58.58 0 01-.28-.618 2.217 2.217 0 00-.633-2.037 2.214 2.214 0 00-2.04-.573.578.578 0 01-.622-.267 9.814 9.814 0 01-1.074-2.496.583.583 0 01.232-.633 2.225 2.225 0 00-.048-3.71.582.582 0 01-.25-.625 9.803 9.803 0 011.008-2.53.579.579 0 01.608-.284 2.211 2.211 0 001.998-.642 2.228 2.228 0 00.576-2.016.58.58 0 01.265-.616 9.85 9.85 0 012.498-1.089.58.58 0 01.633.228c.416.602 1.1.962 1.832.962h.036a2.225 2.225 0 001.844-1.033.577.577 0 01.623-.252c.878.21 1.73.544 2.528.99a.58.58 0 01.287.616 2.225 2.225 0 002.693 2.587.582.582 0 01.626.261 9.828 9.828 0 011.088 2.479.579.579 0 01-.238.642 2.217 2.217 0 00-1.002 1.894 2.215 2.215 0 001.073 1.868.579.579 0 01.263.632 9.828 9.828 0 01-.99 2.51.58.58 0 01-.625.282 2.213 2.213 0 00-.464-.048 2.22 2.22 0 00-2.157 2.757.582.582 0 01-.263.635 9.77 9.77 0 01-2.477 1.07.58.58 0 01-.64-.242 2.223 2.223 0 00-1.865-1.014h-.037a2.221 2.221 0 00-1.86 1.062.584.584 0 01-.496.275zm-1.735-1.848c.48.246.98.449 1.497.602a3.373 3.373 0 012.573-1.254h.054c.998 0 1.93.435 2.571 1.186a8.694 8.694 0 001.469-.635c-.113-1 .222-1.992.932-2.726a3.37 3.37 0 012.695-1.02c.242-.48.439-.978.588-1.487a3.37 3.37 0 01-1.27-2.587 3.365 3.365 0 011.17-2.612 8.666 8.666 0 00-.65-1.478 3.383 3.383 0 01-3.719-3.572 8.583 8.583 0 00-1.52-.596 3.388 3.388 0 01-2.548 1.22h-.056a3.394 3.394 0 01-2.52-1.123c-.521.17-1.026.39-1.51.66a3.383 3.383 0 01-.942 2.64 3.375 3.375 0 01-2.61 1.028 8.826 8.826 0 00-.611 1.53 3.379 3.379 0 011.205 2.537 3.379 3.379 0 01-1.137 2.587c.166.517.383 1.02.646 1.501.984-.09 1.96.252 2.67.939a3.352 3.352 0 011.023 2.66z"/><path d="M28.666 31.604a3.87 3.87 0 01-3.852-3.793 3.825 3.825 0 011.084-2.743 3.837 3.837 0 012.709-1.173h.061a3.872 3.872 0 013.854 3.793 3.86 3.86 0 01-3.792 3.916h-.064zm.002-6.553h-.044a2.683 2.683 0 00-1.894.82 2.67 2.67 0 00-.758 1.919 2.708 2.708 0 002.694 2.654h.045a2.701 2.701 0 002.654-2.74 2.71 2.71 0 00-2.697-2.653z"/></g><defs><filter id="filter0_d" x="0" y="0" width="45.152" height="45" filterUnits="userSpaceOnUse" color-interpolation-filters="sRGB"><feFlood flood-opacity="0" result="BackgroundImageFix"/><feColorMatrix in="SourceAlpha" values="0 0 0 0 0 0 0 0 0 0 0 0 0 0 0 0 0 0 127 0"/><feOffset dy="4"/><feGaussianBlur stdDeviation="2"/><feColorMatrix values="0 0 0 0 0 0 0 0 0 0 0 0 0 0 0 0 0 0 0.25 0"/><feBlend in2="BackgroundImageFix" result="effect1_dropShadow"/><feBlend in="SourceGraphic" in2="effect1_dropShadow" result="shape"/></filter></defs></svg>