<svg width="22" height="18" fill="none" xmlns="http://www.w3.org/2000/svg"><path d="M20.174 17.437H1.747c-.964 0-1.747-.79-1.747-1.764V2.202C0 1.228.783.437 1.747.437h18.427c.964 0 1.747.791 1.747 1.765v13.471c0 .974-.783 1.764-1.747 1.764zM1.747 1.4a.798.798 0 00-.794.802v13.471c0 .443.356.802.794.802h18.427c.438 0 .794-.36.794-.802V2.202a.798.798 0 00-.794-.802H1.747z" fill="#5F5F5F"/><path d="M10.96 14.08c-.467 0-.905-.182-1.235-.516L.14 3.885a.483.483 0 01-.14-.34V2.202C0 1.228.783.437 1.747.437h18.427c.964 0 1.747.791 1.747 1.765v1.343c0 .129-.05.25-.14.34l-9.585 9.678c-.33.333-.768.518-1.236.518zM.954 3.348l9.445 9.536a.79.79 0 001.125 0l9.445-9.536V2.202a.798.798 0 00-.794-.802H1.747a.798.798 0 00-.794.802v1.145z" fill="#5F5F5F"/><path d="M20.933 17.18a.468.468 0 01-.337-.14l-6.258-6.32a.484.484 0 010-.68.473.473 0 01.673 0l6.259 6.32a.484.484 0 010 .68.468.468 0 01-.337.14zm-19.945 0a.468.468 0 01-.337-.14.484.484 0 010-.68l6.259-6.32a.473.473 0 01.673 0 .484.484 0 010 .68l-6.258 6.32a.47.47 0 01-.337.14z" fill="#5F5F5F"/></svg>