<svg width="50" height="50" fill="none" xmlns="http://www.w3.org/2000/svg"><path d="M19.916 43.944H7.63c-3.994 0-7.245-3.25-7.245-7.244V7.659C.385 3.665 3.635.414 7.63.414h22.834c3.994 0 7.244 3.25 7.244 7.245v12.29a1.036 1.036 0 11-2.075 0V7.659c0-2.85-2.32-5.17-5.17-5.17H7.63c-2.85 0-5.17 2.32-5.17 5.17v29.04c0 2.85 2.32 5.17 5.17 5.17h12.287a1.037 1.037 0 11-.001 2.075z" fill="#fff"/><path d="M21.822 25.23H7.952a1.036 1.036 0 01-1.038-1.038c0-.574.463-1.038 1.037-1.038h13.87a1.036 1.036 0 11.001 2.075zm0-6.72H7.952a1.036 1.036 0 01-1.038-1.037c0-.574.463-1.037 1.037-1.037h13.87a1.036 1.036 0 110 2.075zm0-6.715H7.952a1.036 1.036 0 01-1.038-1.038c0-.574.463-1.037 1.037-1.037h13.87a1.036 1.036 0 110 2.075z" fill="#fff"/><path d="M33.825 49.57c-2.172 0-5.018-.58-6.256-1.715-1.214-1.106-2.078-2.486-2.725-4.34-.792-2.258-1.542-3.51-2.98-4.955-.447-.446-1.57-1.134-2.657-1.798-2.897-1.77-4.82-3.047-5.11-4.572a1.906 1.906 0 01.363-1.549c1.884-2.514 6.508-1.362 8.569-.014.435.284 1.39.948 2.272 1.584.045-6.684-.087-19.265-.087-19.403 0-1.574.99-4.053 3.648-4.053 1.27 0 2.383.602 3.13 1.694.564.827.82 1.774.82 2.348v14.317c0 .574-.464 1.037-1.038 1.037a1.036 1.036 0 01-1.037-1.037V12.797c0-.231-.408-1.967-1.875-1.967-1.504 0-1.573 1.947-1.573 1.967 0 .146.162 15.81.066 21.503a1.044 1.044 0 01-.62.933c-.37.163-.802.094-1.106-.172-.512-.453-2.915-2.155-3.735-2.69-1.57-1.028-4.8-1.664-5.743-.513.228.747 2.863 2.355 4.142 3.14 1.3.796 2.424 1.48 3.047 2.106 1.878 1.888 2.718 3.593 3.468 5.734.53 1.518 1.218 2.628 2.165 3.492.65.595 2.898 1.221 5.083 1.17.575-.015.945-.16 1.456-.36.616-.242 1.383-.543 2.58-.588 1.207-.045 2.134.214 2.953.439.633.176 1.18.325 1.764.315 2.822-.07 3.731-2.985 4.022-4.714.28-1.656.259-7.117.245-10.734-.003-.968-.007-1.832-.003-2.507a1.04 1.04 0 011.037-1.034h.004a1.036 1.036 0 011.034 1.041c-.004.671 0 1.529.003 2.493.014 3.904.034 9.254-.273 11.087-.678 4.018-2.87 6.37-6.02 6.442-.893.021-1.643-.186-2.37-.39-.736-.204-1.435-.401-2.316-.367-.848.031-1.335.225-1.902.446-.575.225-1.225.48-2.165.505-.093-.003-.187-.003-.28-.003z" fill="#fff"/><path d="M48.127 30.786a1.036 1.036 0 01-1.037-1.037c0-.643-.07-1.425-.07-1.432-.003-.031-.003-.062-.003-.093 0-1.055-.67-1.764-1.67-1.764-.923 0-1.67.927-1.67 2.061 0 .574-.464 1.038-1.038 1.038a1.036 1.036 0 01-1.037-1.038v-.799c0-1.193-.826-2.362-1.67-2.362s-1.67 1.17-1.67 2.362c0 .574-.464 1.038-1.038 1.038a1.036 1.036 0 01-1.037-1.038v-.799c0-1.192-.827-2.361-1.67-2.361-.92 0-1.67.926-1.67 2.06 0 .575-.464 1.038-1.038 1.038a1.036 1.036 0 01-1.038-1.037c0-2.283 1.68-4.136 3.745-4.136 1.207 0 2.328.76 3.023 1.885.66-.671 1.504-1.086 2.396-1.086 1.248 0 2.4.812 3.088 1.998a3.512 3.512 0 012.327-.899c2.12 0 3.721 1.626 3.746 3.79.017.19.076.924.076 1.574a1.051 1.051 0 01-1.045 1.037z" fill="#fff"/></svg>