<svg width="42" height="33" fill="none" xmlns="http://www.w3.org/2000/svg"><path fill="#E5E5E5" d="M0 0h42v33H0z"/><g clip-path="url(#clip0)"><path fill="#fff" d="M-637-1231h1920v2924H-637z"/><path d="M29.776.81H.884v31.747h28.893l11.258-15.813L29.775.81z" fill="#E42320"/><g clip-path="url(#clip1)" fill="#fff"><path d="M22.114 25.81H8.654c-.975 0-1.77-.721-1.77-1.61V10.977a.48.48 0 01.489-.471c.27 0 .489.21.489.471v13.225c0 .367.355.666.793.666h13.459c.438 0 .793-.299.793-.666V7.419c0-.368-.357-.666-.793-.666H12.24a.48.48 0 01-.489-.472.48.48 0 01.489-.471h9.874c.975 0 1.77.721 1.77 1.609V24.2c0 .888-.795 1.609-1.77 1.609z"/><path d="M10.959 11.447H7.373a.489.489 0 01-.45-.29.46.46 0 01.105-.514l4.867-4.695a.5.5 0 01.533-.102.471.471 0 01.301.435v3.557c0 .888-.795 1.61-1.77 1.61zm-2.406-.942h2.405c.439 0 .794-.299.794-.667v-2.42l-3.2 3.087zm11.603 4.175h-9.04a.48.48 0 01-.489-.471.48.48 0 01.49-.472h9.039c.27 0 .489.21.489.472a.48.48 0 01-.489.471zm0 2.316h-9.04a.48.48 0 01-.489-.471.48.48 0 01.49-.472h9.039a.48.48 0 01.489.472.48.48 0 01-.489.471zm0 2.318h-9.04a.48.48 0 01-.489-.471.48.48 0 01.49-.472h9.039c.27 0 .489.21.489.472a.48.48 0 01-.489.471z"/></g></g><defs><clipPath id="clip0"><path fill="#fff" transform="translate(-637 -1231)" d="M0 0h1920v2924H0z"/></clipPath><clipPath id="clip1"><path fill="#fff" transform="translate(6.884 5.81)" d="M0 0h17v20H0z"/></clipPath></defs></svg>