<svg width="42" height="33" fill="none" xmlns="http://www.w3.org/2000/svg"><path fill="#E5E5E5" d="M0 0h42v33H0z"/><g clip-path="url(#clip0)"><path fill="#fff" d="M-637-1587h1920v2924H-637z"/><path d="M29.776.572H.884V32.32h28.893l11.258-15.814L29.775.572z" fill="#E42320"/><g clip-path="url(#clip1)" fill="#fff"><path d="M13.819 23.7H9.587c-.76 0-1.38-.645-1.38-1.438v-7.956H6.674a.39.39 0 01-.248-.09 1.241 1.241 0 01-.465-.953c0-.36.17-.708.465-.953l2.045-1.696V6.111c0-.32.25-.579.555-.579h2.403c.306 0 .555.26.555.579V7.7l2.24-1.856a1.618 1.618 0 012.011 0l7.798 6.466c.295.245.465.592.465.953s-.169.708-.465.953a.39.39 0 01-.248.09h-1.534v1.612c0 .23-.178.415-.398.415a.406.406 0 01-.398-.415V13.89c0-.23.178-.415.398-.415h1.771a.354.354 0 00.078-.214c0-.108-.059-.216-.164-.304L15.74 6.492c-.272-.225-.748-.225-1.02 0l-2.884 2.393a.381.381 0 01-.42.049.416.416 0 01-.226-.374V6.362H9.267v4.452a.425.425 0 01-.15.325l-2.196 1.82a.407.407 0 00-.163.304c0 .074.026.147.077.215h1.771c.22 0 .398.185.398.415v8.37c0 .334.262.607.584.607h4.23c.221 0 .399.185.399.415 0 .23-.18.415-.398.415z"/><path d="M20.035 27.492c-.839 0-1.938-.233-2.417-.69-.468-.445-.803-1.001-1.052-1.747-.307-.91-.597-1.415-1.153-1.997-.173-.181-.607-.458-1.027-.726-1.12-.714-1.862-1.227-1.975-1.84a.79.79 0 01.14-.621c.728-1.011 2.513-.55 3.307-.006.169.115.542.384.884.64.018-2.69-.033-7.769-.033-7.825 0-.633.382-1.63 1.407-1.63.49 0 .92.242 1.207.68.218.333.316.714.316.945v5.77c0 .23-.178.415-.398.415a.406.406 0 01-.398-.415v-5.768c0-.094-.158-.795-.727-.795-.585 0-.61.787-.61.795 0 .06.063 6.371.025 8.664a.419.419 0 01-.238.374.388.388 0 01-.425-.07c-.197-.182-1.126-.867-1.445-1.084-.608-.415-1.862-.672-2.225-.204.083.3 1.107.951 1.603 1.268.503.32.937.597 1.177.85.725.76 1.05 1.446 1.34 2.308.205.611.471 1.06.838 1.408.252.24 1.124.492 1.968.472.221-.006.365-.064.564-.146.237-.096.534-.218.996-.236.465-.017.824.085 1.14.178.244.07.455.133.684.128 1.093-.028 1.445-1.204 1.558-1.902.107-.668.1-2.873.094-4.333-.002-.387-.003-.734-.002-1.004a.408.408 0 01.399-.413c.221 0 .399.186.398.416-.002.268 0 .613.001.999.005 1.575.013 3.734-.105 4.471-.261 1.619-1.108 2.564-2.325 2.595-.345.009-.636-.076-.916-.157-.285-.083-.555-.163-.896-.148-.328.012-.517.09-.737.18-.222.09-.473.193-.836.203-.035-.002-.07-.002-.106-.002z"/><path d="M25.564 19.922a.406.406 0 01-.398-.415c0-.26-.027-.574-.028-.577-.002-.012-.002-.024-.002-.037 0-.426-.26-.714-.649-.714-.358 0-.649.375-.649.834 0 .23-.177.415-.398.415a.406.406 0 01-.398-.415v-.322c0-.483-.321-.956-.649-.956s-.649.473-.649.956c0 .23-.177.415-.398.415a.406.406 0 01-.398-.415v-.322c0-.483-.321-.956-.649-.956-.358 0-.649.375-.649.834 0 .23-.178.415-.398.415a.406.406 0 01-.398-.415c0-.917.649-1.664 1.445-1.664.467 0 .9.307 1.168.76.255-.27.581-.438.926-.438.483 0 .928.328 1.193.807.247-.228.56-.364.901-.364.818 0 1.436.654 1.446 1.524.006.076.029.372.029.634a.407.407 0 01-.398.416z"/></g></g><defs><clipPath id="clip0"><path fill="#fff" transform="translate(-637 -1587)" d="M0 0h1920v2924H0z"/></clipPath><clipPath id="clip1"><path fill="#fff" transform="translate(5.961 5.492)" d="M0 0h20v22H0z"/></clipPath></defs></svg>