<svg width="42" height="33" fill="none" xmlns="http://www.w3.org/2000/svg"><path fill="#E5E5E5" d="M0 0h42v33H0z"/><g clip-path="url(#clip0)"><path fill="#fff" d="M-637-1788h1920v2924H-637z"/><path d="M29.776.545H.884v31.748h28.893l11.258-15.814L29.775.545z" fill="#E42320"/><g clip-path="url(#clip1)"><path d="M28.653 8.497a.384.384 0 00-.275-.252.379.379 0 00-.357.102l-2.477 2.48a.13.13 0 01-.18 0l-1.888-1.889a.128.128 0 01-.037-.09c0-.02.005-.057.037-.09l2.477-2.478a.38.38 0 00-.149-.632 4.515 4.515 0 00-1.42-.229c-1.2 0-2.33.468-3.177 1.316a4.477 4.477 0 00-1.304 2.89.321.321 0 00-.01.079c-.038 1.32-1.36 3.505-3.288 5.433-1.928 1.93-4.112 3.251-5.433 3.29-.016 0-.03.003-.045.006a4.46 4.46 0 00-2.921 1.31 4.477 4.477 0 00-1.087 4.598c.042.126.145.22.275.252a.379.379 0 00.357-.102l2.477-2.478a.127.127 0 01.09-.037c.02 0 .058.005.09.037l1.888 1.888a.129.129 0 010 .18L9.819 26.56a.38.38 0 00.15.631 4.493 4.493 0 004.597-1.087 4.464 4.464 0 001.31-2.92.63.63 0 00.006-.047c.039-1.321 1.36-3.505 3.288-5.434 1.928-1.929 4.111-3.25 5.432-3.289.015 0 .03-.004.044-.006a4.465 4.465 0 002.922-1.31 4.484 4.484 0 001.085-4.601zm-14.63 17.066a3.71 3.71 0 01-3.186 1.053l1.997-1.998a.885.885 0 00.26-.63.885.885 0 00-.26-.628l-1.888-1.889a.885.885 0 00-.629-.26.884.884 0 00-.63.26l-1.997 2a3.709 3.709 0 011.053-3.19 3.708 3.708 0 012.64-1.093c.998 0 1.935.39 2.64 1.094a3.709 3.709 0 011.093 2.64 3.702 3.702 0 01-1.093 2.64zm4.604-8.401c-1.386 1.385-2.457 2.878-3.035 4.172a4.495 4.495 0 00-2.621-2.621c1.294-.579 2.787-1.652 4.171-3.037 1.387-1.387 2.46-2.882 3.038-4.176a4.46 4.46 0 001.027 1.596c.46.46 1.002.806 1.593 1.028-1.294.58-2.788 1.652-4.173 3.037zm5.76-3.512a3.712 3.712 0 01-2.64-1.094 3.74 3.74 0 010-5.28 3.709 3.709 0 013.188-1.053L22.938 8.22a.885.885 0 00-.26.63c0 .237.092.46.26.629l1.888 1.888c.167.167.391.26.629.26a.884.884 0 00.629-.26l1.997-1.998a3.712 3.712 0 01-1.054 3.189 3.712 3.712 0 01-2.64 1.092z" fill="#fff"/></g></g><defs><clipPath id="clip0"><path fill="#fff" transform="translate(-637 -1788)" d="M0 0h1920v2924H0z"/></clipPath><clipPath id="clip1"><path fill="#fff" transform="translate(6.884 5.419)" d="M0 0h22v22H0z"/></clipPath></defs></svg>