<svg width="48" height="49" fill="none" xmlns="http://www.w3.org/2000/svg"><g clip-path="url(#clip0)" fill="#fff"><path d="M1.314 48.774a.95.95 0 01-.917-1.142c.463-2.234.83-4.233 1.155-5.999C2.861 34.506 3.581 30.58 7.52 27.25c2.413-2.044 4.758-2.996 7.379-2.996 1.716 0 3.3.408 4.834.804l.354.091c4.173 1.08 9.076 2.724 9.126 2.74.27.092.485.3.582.57a.96.96 0 01-.072.816c-.065.11-1.665 2.72-6.865 2.72-.664 0-1.372-.04-2.098-.126a2.592 2.592 0 00-.263-.016c-.695 0-.723.332-.736.455-.063.728.933 2.288 3.62 2.765.741.133 1.596.2 2.532.2 4.759 0 11.64-1.829 14.919-4.891 1.587-1.48 3.096-2.233 4.483-2.233 1.014 0 1.597.414 1.703.5a.953.953 0 01.294 1.107c-3.575 8.867-12.576 14.375-23.487 14.375-1.578 0-3.2-.117-4.822-.349a29.927 29.927 0 00-4.16-.306c-9.114 0-12.615 4.707-12.759 4.906a.965.965 0 01-.77.393zM14.893 26.15c-2.154 0-4.114.81-6.171 2.553-3.42 2.892-4.055 6.362-5.326 13.277-.178.972-.37 2.012-.582 3.126 2.173-1.613 6.017-3.53 12.022-3.53 1.415 0 2.906.11 4.424.325 1.534.219 3.068.33 4.559.33 9.702 0 17.755-4.638 21.302-12.177-.564.054-1.584.38-3.021 1.721-3.754 3.505-11.146 5.394-16.193 5.394-1.046 0-2.01-.076-2.858-.228-3.57-.636-5.326-2.948-5.166-4.799.125-1.449 1.396-2.354 3.084-2.16a16.5 16.5 0 001.881.113c2.085 0 3.406-.462 4.205-.917-1.77-.57-4.76-1.5-7.436-2.192l-.354-.092c-1.487-.38-2.893-.744-4.37-.744z"/><path d="M39.564 29.299a.943.943 0 01-.94-.95v-8.015c0-.526.42-.95.94-.95h4.267a.846.846 0 00.194-.515c0-.26-.14-.516-.4-.721L24.874 3.073c-.66-.531-1.816-.531-2.473 0l-6.935 5.574a.922.922 0 01-.993.111.949.949 0 01-.532-.854V2.767H9.286v10.392a.961.961 0 01-.354.743l-5.279 4.242c-.256.21-.4.465-.4.722 0 .177.068.354.194.515h4.267c.52 0 .94.424.94.95v3.552c0 .525-.42.949-.94.949a.943.943 0 01-.94-.949v-2.604H3.069a.938.938 0 01-.586-.205c-.704-.567-1.108-1.373-1.108-2.208 0-.835.404-1.642 1.108-2.209L7.407 12.7V2.197c0-.734.592-1.332 1.318-1.332h5.78c.726 0 1.315.598 1.315 1.332V5.94l5.41-4.353C22.58.5 24.696.5 26.045 1.587l18.75 15.07c.705.567 1.109 1.37 1.109 2.209 0 .835-.404 1.642-1.109 2.208a.938.938 0 01-.585.205h-3.707v7.068a.948.948 0 01-.94.952z"/><path d="M28.646 26.25a.943.943 0 01-.94-.95v-2.936c0-.417-.456-.768-.998-.768h-6.14c-.541 0-.998.35-.998.768 0 .526-.42.95-.94.95a.943.943 0 01-.939-.95c0-1.47 1.29-2.666 2.878-2.666h6.14c1.587 0 2.876 1.195 2.876 2.666V25.3c0 .525-.42.95-.939.95z"/></g><defs><clipPath id="clip0"><path fill="#fff" transform="translate(.375 .773)" d="M0 0h47v48H0z"/></clipPath></defs></svg>