<svg width="48" height="73" fill="none" xmlns="http://www.w3.org/2000/svg"><path d="M23.506 47.884C10.546 47.884.008 37.34.008 24.386.008 11.426 10.547.89 23.506.89c12.96 0 23.498 10.538 23.498 23.497 0 12.953-10.545 23.498-23.498 23.498zm0-42.833c-10.663 0-19.335 8.672-19.335 19.335 0 10.664 8.672 19.335 19.335 19.335s19.335-8.671 19.335-19.335c0-10.663-8.679-19.335-19.335-19.335z" fill="#C5C5C5"/><path d="M23.506 40.017c-8.623 0-15.637-7.014-15.637-15.638 0-8.623 7.014-15.637 15.637-15.637 8.623 0 15.638 7.014 15.638 15.637-.008 8.624-7.021 15.638-15.638 15.638zm0-27.105c-6.327 0-11.475 5.147-11.475 11.474 0 6.328 5.148 11.475 11.475 11.475s11.475-5.147 11.475-11.475c-.007-6.327-5.148-11.474-11.475-11.474z" fill="#C5C5C5"/><path d="M37.874 72.887c-.458 0-.91-.152-1.284-.444l-12.779-9.997L10.38 72.471a2.08 2.08 0 01-2.179.194 2.093 2.093 0 01-1.151-1.859V41.668c0-1.152.93-2.081 2.081-2.081 1.152 0 2.081.93 2.081 2.081v24.99l11.378-8.5a2.082 2.082 0 012.525.029l10.664 8.346V41.668c0-1.152.93-2.081 2.08-2.081 1.152 0 2.082.93 2.082 2.081v29.138a2.08 2.08 0 01-2.067 2.081z" fill="#C5C5C5"/></svg>