<svg width="24" height="28" fill="none" xmlns="http://www.w3.org/2000/svg"><g clip-path="url(#clip0)" fill="#fff"><path d="M5.071 24.679c-3.997-3.321-2.523-6.33.216-10.965 1.226-2.076 2.495-4.223 2.84-6.43C8.54 4.638 7.572 2.366 5.17.342a1.158 1.158 0 00-1.6.113 1.086 1.086 0 00.114 1.558c3.747 3.158 2.302 6.085-.367 10.601-1.252 2.12-2.547 4.312-2.88 6.585-.4 2.72.635 5.063 3.16 7.16.213.177.476.264.735.264.32 0 .64-.13.864-.388a1.08 1.08 0 00-.126-1.555zM12.443.505a1.158 1.158 0 00-1.601.113 1.086 1.086 0 00.115 1.558c3.748 3.158 2.303 6.085-.366 10.601-1.252 2.12-2.547 4.312-2.88 6.585-.4 2.72.635 5.063 3.16 7.16.213.178.476.265.735.265.32 0 .64-.132.864-.389a1.085 1.085 0 00-.126-1.557c-3.997-3.321-2.523-6.33.216-10.964 1.226-2.077 2.495-4.223 2.84-6.43.412-2.645-.554-4.916-2.957-6.942zm10.82 7.232c.414-2.648-.554-4.92-2.956-6.944a1.158 1.158 0 00-1.6.112 1.086 1.086 0 00.115 1.56c3.746 3.156 2.301 6.083-.367 10.6-1.253 2.12-2.548 4.312-2.881 6.585-.399 2.72.635 5.063 3.16 7.16.213.177.476.264.735.264.32 0 .64-.13.864-.388a1.085 1.085 0 00-.125-1.557c-3.997-3.321-2.524-6.33.215-10.964 1.226-2.075 2.496-4.223 2.84-6.428z"/></g><defs><clipPath id="clip0"><path fill="#fff" transform="translate(.357 .073)" d="M0 0h23v27H0z"/></clipPath></defs></svg>