<svg width="17" height="23" fill="none" xmlns="http://www.w3.org/2000/svg"><path d="M9.34 19.784c0 .54-.446.98-.995.98a.989.989 0 01-.996-.98.99.99 0 01.996-.981c.549 0 .995.44.995.98z" fill="#5F5F5F"/><path d="M13.99 22.437H2.7c-1.489 0-2.7-1.193-2.7-2.66V3.098C0 1.63 1.211.437 2.7.437h11.29c1.489 0 2.7 1.193 2.7 2.66v16.68c0 1.467-1.211 2.66-2.7 2.66zM2.7 1.585c-.847 0-1.536.678-1.536 1.512v16.68c0 .834.69 1.513 1.535 1.513H13.99c.846 0 1.535-.679 1.535-1.512V3.097c0-.834-.689-1.512-1.535-1.512H2.7z" fill="#5F5F5F"/><path d="M13.02 18.091H3.67a1.105 1.105 0 01-1.112-1.095V3.959c0-.604.498-1.095 1.112-1.095h9.35c.613 0 1.112.491 1.112 1.095v13.037c0 .604-.5 1.095-1.112 1.095zm-9.298-1.147h9.245V4.011H3.722v12.933z" fill="#5F5F5F"/></svg>