<svg width="42" height="42" fill="none" xmlns="http://www.w3.org/2000/svg"><path d="M30.609 29.357c-2.532 0-4.949-1.617-6.959-3.262a.77.77 0 11.974-1.197c4.031 3.295 6.686 3.756 9.175 1.588 3.686-3.212 6.074-18.568 6.467-22.197.072-.665.16-1.47.093-1.764a.787.787 0 01-.301-.198c-.244-.088-1.103.005-1.797.08-3.63.396-18.968 2.793-22.17 6.48-2.209 2.54-1.738 5.12 1.678 9.197a.773.773 0 01-1.182.994c-2.767-3.306-5.126-7.219-1.661-11.206 4.108-4.729 22.973-6.979 23.163-7 1.38-.149 2.337-.252 2.938.245 1.087.415.94 1.771.774 3.329-.02.195-2.26 19.083-6.99 23.204-1.403 1.223-2.82 1.707-4.202 1.707z" fill="#E42320"/><path d="M7.106 41.749a1.9 1.9 0 01-1.35-.559L1.475 36.9a1.915 1.915 0 010-2.7l12.583-12.601c.36-.36.838-.559 1.35-.559a1.9 1.9 0 011.349.559l.082.082c5.167-4.767 8.54-7.185 10.036-7.185.483 0 .784.201.95.369.875.872.263 2.442-2.177 5.598-1.442 1.864-3.233 3.885-4.63 5.404l.021.02c.36.36.558.84.558 1.352a1.9 1.9 0 01-.558 1.351L8.456 41.19c-.363.358-.84.559-1.35.559zm8.3-19.168a.353.353 0 00-.257.108L2.564 35.29a.369.369 0 000 .517l4.283 4.29c.092.092.2.107.257.107a.353.353 0 00.257-.108l12.582-12.6a.365.365 0 00.108-.258.355.355 0 00-.108-.258l-.547-.548a.775.775 0 01-.018-1.073c5.187-5.576 6.925-8.328 7.223-9.27-1.1.332-4.03 2.353-9.259 7.228a.773.773 0 01-1.072-.018l-.606-.607a.362.362 0 00-.258-.11z" fill="#E42320"/></svg>