<svg width="40" height="37" fill="none" xmlns="http://www.w3.org/2000/svg"><path d="M13.619 19.207a.832.832 0 01-.593-.244L9.58 15.551l-1.718 1.702a2.112 2.112 0 01-1.494.613 2.1 2.1 0 01-1.494-.613L1.27 13.681a2.06 2.06 0 01-.619-1.48c0-.56.219-1.087.619-1.48l9.012-8.93c.697-.69 1.948-1.065 2.91-.874l6.514 1.292c.641.128 1.1.496 1.257 1.012.157.515-.017 1.075-.479 1.532l-4.191 4.15 3.36 3.328a.826.826 0 010 1.175.845.845 0 01-1.186 0l-3.954-3.913a.827.827 0 010-1.175l4.575-4.535-6.226-1.233c-.417-.083-1.094.122-1.393.418l-9.013 8.928a.43.43 0 000 .61l3.604 3.572a.438.438 0 00.616 0l2.31-2.29a.866.866 0 011.187 0l4.038 4a.826.826 0 010 1.175.843.843 0 01-.593.244zM32.005 36.73c-.652 0-1.268-.22-1.721-.672l-8.613-8.53a.826.826 0 010-1.176.845.845 0 011.187 0l8.612 8.531c.333.33 1.156.244 1.808-.402l2.124-2.103c.652-.646.736-1.464.405-1.79l-8.786-8.706a.826.826 0 010-1.175.845.845 0 011.187 0l8.788 8.702c1.041 1.031.86 2.891-.405 4.144l-2.124 2.104c-.713.706-1.62 1.072-2.462 1.072z" fill="#E42320"/><path d="M12.306 36.762a8.15 8.15 0 01-3.136-.64.835.835 0 01-.499-.607.834.834 0 01.23-.748l3.526-3.495a.67.67 0 000-.96l-2.155-2.133a.708.708 0 00-.968 0l-3.529 3.495a.837.837 0 01-.755.227.84.84 0 01-.613-.494c-1.197-2.824-.694-5.911 1.285-7.87C6.939 22.3 8.649 21.62 10.51 21.62c.677 0 1.357.089 2.029.266l12.196-12.08c-.839-2.633-.26-5.327 1.565-7.134 1.25-1.23 2.96-1.91 4.815-1.91 1.06 0 2.116.216 3.137.64a.834.834 0 01.498.607.834.834 0 01-.23.749l-3.525 3.495a.675.675 0 000 .959l2.154 2.134a.705.705 0 00.966 0l3.528-3.495a.845.845 0 011.368.266c1.198 2.824.694 5.912-1.284 7.871-1.248 1.236-2.958 1.915-4.818 1.915-.8 0-1.6-.122-2.384-.366l-11.96 11.84c.991 2.714.448 5.594-1.449 7.473-1.242 1.233-2.952 1.912-4.81 1.912zm-1.236-1.79c.414.083.828.127 1.236.127 1.41 0 2.695-.507 3.624-1.424 1.527-1.514 1.875-3.93.884-6.161a.827.827 0 01.174-.924l12.72-12.602a.846.846 0 01.898-.188 6.376 6.376 0 002.3.438c1.41 0 2.7-.508 3.632-1.43 1.214-1.203 1.681-3.002 1.31-4.815L35.3 10.515a2.358 2.358 0 01-1.67.685c-.63 0-1.226-.244-1.67-.687l-2.155-2.134a2.312 2.312 0 01-.692-1.655c0-.627.247-1.214.692-1.655l2.546-2.522a6.29 6.29 0 00-1.237-.127c-1.407 0-2.694.507-3.623 1.424-1.467 1.453-1.85 3.703-1.002 5.876a.823.823 0 01-.19.887l-12.922 12.81a.845.845 0 01-.86.2 6.359 6.359 0 00-2-.33c-1.41 0-2.7.507-3.629 1.427-1.214 1.203-1.682 3.002-1.31 4.814l2.547-2.522a2.347 2.347 0 011.67-.684 2.35 2.35 0 011.67.687l2.155 2.134c.448.44.694 1.031.691 1.655 0 .626-.246 1.214-.694 1.654l-2.549 2.52z" fill="#E42320"/></svg>