<svg width="45" height="37" fill="none" xmlns="http://www.w3.org/2000/svg"><g clip-path="url(#clip0)" fill="#E42320"><path d="M38.27 36.57c-5.08 0-9.842-2.233-13.127-6.137h-5.525a.81.81 0 01-.806-.814c0-.45.36-.814.806-.814h5.904c.242 0 .473.11.626.3 2.396 2.98 5.719 4.94 9.38 5.596a16.999 16.999 0 01-4.17-4.656.822.822 0 01-.015-.825.805.805 0 01.704-.418h7.24c1.874 0 3.398-1.539 3.398-3.43V9.769c0-1.89-1.524-3.43-3.398-3.43h-7.106a.81.81 0 01-.806-.814c0-.45.36-.814.806-.814h7.106c2.764 0 5.011 2.269 5.011 5.058v15.606c0 2.79-2.247 5.058-5.01 5.058h-5.714a15.362 15.362 0 005.522 4.58.817.817 0 01-.328 1.547l-.12.005c-.127.003-.25.006-.377.006z"/><path d="M6.32 32.43c-.126 0-.25-.006-.376-.009l-.12-.005a.807.807 0 01-.764-.643.818.818 0 01.435-.904 15.341 15.341 0 005.523-4.58h-5.71c-2.765.003-5.012-2.266-5.012-5.055V5.628C.296 2.838 2.543.57 5.307.57h19.667c2.763 0 5.011 2.269 5.011 5.058v15.606c0 2.79-2.248 5.058-5.011 5.058h-5.525c-3.286 3.904-8.047 6.137-13.128 6.137zM5.308 2.197c-1.874 0-3.398 1.539-3.398 3.43v15.606c0 1.89 1.524 3.43 3.398 3.43h7.24c.293 0 .562.16.705.417a.823.823 0 01-.016.825 17.133 17.133 0 01-4.173 4.657c3.662-.654 6.985-2.616 9.383-5.596a.807.807 0 01.626-.3h5.904c1.874 0 3.399-1.54 3.399-3.43V5.627c-.006-1.891-1.53-3.43-3.401-3.43H5.307z"/><path d="M23.688 10.71H6.673a.81.81 0 01-.807-.813c0-.45.36-.814.807-.814h17.015a.81.81 0 01.807.814.81.81 0 01-.807.814zm0 3.837H6.673a.81.81 0 01-.807-.814c0-.45.36-.814.807-.814h17.015a.81.81 0 01.807.814.81.81 0 01-.807.814zm0 3.84H6.673a.81.81 0 01-.807-.814c0-.45.36-.814.807-.814h17.015a.81.81 0 01.807.814.81.81 0 01-.807.814z"/></g><defs><clipPath id="clip0"><path fill="#fff" transform="translate(.296 .57)" d="M0 0h44v36H0z"/></clipPath></defs></svg>