<svg width="39" height="39" fill="none" xmlns="http://www.w3.org/2000/svg"><g clip-path="url(#clip0)" fill="#E42320"><path d="M5.534 38.83a.644.644 0 01-.45-.182L.187 33.877a.609.609 0 010-.877l8.977-8.746a.678.678 0 01.21-.137l5.385-2.145a.647.647 0 01.691.136l1.715 1.67c.18.176.235.443.14.674l-2.203 5.25a.612.612 0 01-.14.204l-8.979 8.742a.639.639 0 01-.45.182zm-3.997-5.39l3.997 3.894 8.435-8.219 1.995-4.75-1.114-1.086-4.878 1.941-8.435 8.22zm30.443-6.176c-.422 0-.817-.16-1.116-.45L12.334 8.755a1.509 1.509 0 010-2.173l5.444-5.302a1.58 1.58 0 011.114-.45c.422 0 .816.158 1.116.45L38.54 19.338a1.51 1.51 0 010 2.173l-5.444 5.302a1.59 1.59 0 01-1.116.45zM18.892 2.07a.3.3 0 00-.215.087l-5.444 5.305a.287.287 0 000 .417l18.533 18.058a.313.313 0 00.214.086.3.3 0 00.214-.086l5.444-5.305a.292.292 0 000-.42L19.106 2.157a.3.3 0 00-.214-.087z"/><path d="M31.466 33.645c-.403 0-.808-.149-1.114-.448L18.757 21.819a.31.31 0 00-.428.002l-.541.527a.648.648 0 01-.9 0 .609.609 0 010-.877l.541-.527c.616-.6 1.615-.6 2.23 0l11.595 11.378a.31.31 0 00.428-.002l5.402-5.263a.29.29 0 000-.417l-.914-.892a.609.609 0 010-.876.648.648 0 01.9 0l.914.891a1.51 1.51 0 010 2.173l-5.402 5.263c-.307.296-.71.446-1.116.446z"/></g><defs><clipPath id="clip0"><path fill="#fff" transform="translate(0 .83)" d="M0 0h39v38H0z"/></clipPath></defs></svg>