<svg width="36" height="29" fill="none" xmlns="http://www.w3.org/2000/svg"><g clip-path="url(#clip0)" fill="#E42320"><path d="M11.157 28.094c-2.251 0-7.621-3.12-9.898-5.806-.991-1.17-1.4-2.227-1.216-3.15-.017-.519.303-1.463 5.682-4.59a.646.646 0 01.891.249c.179.32.07.726-.244.908-3.592 2.088-4.832 3.183-5.02 3.53a.658.658 0 01-.019.128c-.124.482.2 1.213.915 2.057 2.312 2.73 7.575 5.501 8.994 5.339 2.78-.318 20.557-4.089 23.165-8.697.334-.589.375-1.126.133-1.693a2.818 2.818 0 00-.194-.364.674.674 0 01.192-.922.646.646 0 01.904.196c.115.182.216.368.296.555.406.946.338 1.946-.198 2.892-3.074 5.426-22.19 9.13-24.152 9.355-.075.008-.15.013-.231.013z"/><path d="M17.59 23.44c-10.906 0-12.071-5.374-12.117-5.603a.522.522 0 01-.011-.1c-.007-.168-.15-4.157 1.484-8.337C8.475 5.484 11.902.7 19.538.138 25.73-.317 30.53 2.677 33.375 8.745c1.97 4.2 2.3 8.335 2.313 8.508a.675.675 0 01-.217.549c-.244.222-6.116 5.434-17.28 5.632-.202.005-.404.007-.6.007zM6.767 17.616c.128.433 1.573 4.493 10.823 4.493.19 0 .384-.002.582-.004 9.43-.167 14.97-4.125 16.181-5.086-.122-1.06-.612-4.42-2.17-7.73-2.636-5.594-6.867-8.237-12.549-7.82-5.575.41-9.431 3.23-11.46 8.385-1.433 3.642-1.418 7.242-1.407 7.762z"/><path d="M9.224 21.56a.657.657 0 01-.631-.496c-.02-.075-.029-.117-.029-.117a.837.837 0 01-.013-.107c-.009-.171-.172-4.247 1.336-8.506 2.032-5.744 6.133-8.995 11.858-9.408 5.08-.367 9.087 1.814 11.9 6.478a.674.674 0 01-.214.917.647.647 0 01-.9-.217c-2.537-4.207-6.137-6.175-10.694-5.848-5.231.375-8.835 3.234-10.708 8.495-1.334 3.745-1.288 7.456-1.275 7.97v.003a.67.67 0 01-.464.816.673.673 0 01-.166.02z"/></g><defs><clipPath id="clip0"><path fill="#fff" transform="translate(0 .094)" d="M0 0h36v28H0z"/></clipPath></defs></svg>