<svg width="42" height="38" fill="none" xmlns="http://www.w3.org/2000/svg"><path d="M30.282 9.352a.874.874 0 01-.876-.875v-5.01c0-.68-.633-1.23-1.413-1.23h-17.63a.874.874 0 110-1.751h17.63c1.743 0 3.165 1.336 3.165 2.982v5.009a.878.878 0 01-.876.875zm-2.289 28.134H3.961c-1.746 0-3.165-1.336-3.165-2.979v-24.46a.875.875 0 111.752 0v24.46c0 .677.633 1.228 1.413 1.228h24.032c.78 0 1.413-.551 1.413-1.228v-4.286a.875.875 0 111.752 0v4.286c0 1.643-1.422 2.979-3.165 2.979z" fill="#E42320"/><path d="M8.074 10.922H1.672a.875.875 0 01-.62-1.494L9.742.743a.874.874 0 011.495.619V7.94c.003 1.646-1.42 2.982-3.162 2.982zm-4.289-1.75h4.286c.78 0 1.413-.552 1.413-1.229v-4.47L3.785 9.171zM21.489 16.9H8.354a.874.874 0 110-1.75H21.49a.874.874 0 110 1.75zm-4.143 4.286H8.354a.874.874 0 110-1.75h8.99a.874.874 0 11.002 1.75zm-2.073 4.282H8.354a.874.874 0 110-1.75h6.916a.874.874 0 11.003 1.75zm12.32 4.756a.875.875 0 01-.61-1.503l12.504-12.14c.35-.34.549-.796.554-1.283a1.832 1.832 0 00-.516-1.301l-3.629-3.735a1.817 1.817 0 00-1.288-.554 1.81 1.81 0 00-1.301.517l-12.504 12.14a.875.875 0 11-1.22-1.255L32.088 8.97a3.586 3.586 0 015.065.073l3.63 3.734a3.557 3.557 0 011.012 2.547c-.014.957-.4 1.85-1.086 2.515L28.206 29.98a.891.891 0 01-.613.245z" fill="#E42320"/><path d="M16.56 33.536a.874.874 0 01-.835-1.138L19.08 21.74a.875.875 0 011.67.525l-2.867 9.112 9.196-2.603a.876.876 0 01.476 1.683l-10.758 3.044a.725.725 0 01-.236.035z" fill="#E42320"/><path d="M27.375 29.857a.87.87 0 01-.628-.266l-6.563-6.751a.875.875 0 111.255-1.22l6.563 6.752a.875.875 0 01-.627 1.485z" fill="#E42320"/></svg>