<svg width="40" height="28" fill="none" xmlns="http://www.w3.org/2000/svg"><g clip-path="url(#clip0)" fill="#E42320"><path d="M2.842 22.928A2.18 2.18 0 01.66 20.767c0-.032 0-2.747.028-4.223V9.052a.74.74 0 01.47-.69C20.318.724 20.748.724 20.93.724h1.13c.88 0 1.597.713 1.597 1.587v13.425l1.5-.072V3.773c0-.74.607-1.344 1.355-1.344h7.086c.503 0 .673 0 3.043 4.23 2.044 3.65 2.214 4.204 2.23 4.41.2 2.062.507 5.222.55 5.525.342 2.504.544 5.013-1.05 5.813-.866.434-2.28.454-3.678.41a.746.746 0 11.045-1.49c.633.019 2.313.071 2.955-.252.775-.387.372-3.319.24-4.283-.058-.417-.478-4.767-.553-5.54-.322-.816-3.294-6.185-4.111-7.335h-6.612v12.456a.75.75 0 01-.713.745l-3 .144a.753.753 0 01-.787-.743V2.312a.096.096 0 00-.097-.096h-1.047c-1.1.323-11.614 4.466-18.826 7.338v7c-.027 1.478-.027 4.18-.027 4.208.002.373.31.676.685.676h.002l2.23-.005h.003c.412 0 .75.333.75.743a.75.75 0 01-.748.747l-2.23.005h-.01zm31.779-12.17l-6.434-.017a.745.745 0 01-.747-.75l.017-3.838c0-.581.477-1.058 1.067-1.058h3.722c.482 0 .597.067 1.907 2.402 1.218 2.173 1.218 2.322 1.218 2.514a.74.74 0 01-.22.526.733.733 0 01-.53.221zm-5.677-1.505l4.475.013c-.485-.902-1.195-2.154-1.535-2.678h-2.928l-.012 2.665z"/><path d="M9.834 27.725c-2.845 0-5.162-2.3-5.162-5.13 0-2.827 2.315-5.13 5.162-5.13 2.844 0 5.162 2.3 5.162 5.13-.003 2.83-2.318 5.13-5.162 5.13zm0-8.767c-2.02 0-3.662 1.633-3.662 3.64s1.642 3.639 3.662 3.639 3.662-1.632 3.662-3.64c-.003-2.006-1.645-3.639-3.662-3.639zm20.29 8.767c-2.845 0-5.162-2.3-5.162-5.13 0-2.827 2.315-5.13 5.162-5.13 2.844 0 5.162 2.3 5.162 5.13s-2.315 5.13-5.162 5.13zm0-8.767c-2.02 0-3.662 1.633-3.662 3.64s1.642 3.639 3.662 3.639 3.662-1.632 3.662-3.64c0-2.006-1.642-3.639-3.662-3.639z"/><path d="M25.184 23.08H14.596a.747.747 0 01-.75-.745c0-.413.335-.746.75-.746h10.586a.746.746 0 11.002 1.49zm6.297-.485c0 .745-.607 1.35-1.357 1.35s-1.357-.605-1.357-1.35c0-.745.607-1.349 1.357-1.349.75.003 1.357.607 1.357 1.35zm-20.29 0c0 .745-.607 1.35-1.357 1.35s-1.357-.605-1.357-1.35a1.358 1.358 0 012.715 0zm4.934-8.692a.744.744 0 01-.655-1.108l4.312-7.668a.75.75 0 011.02-.288c.363.201.49.656.29 1.013l-4.312 7.669a.753.753 0 01-.655.382zm-5.924 0a.74.74 0 01-.382-.104.742.742 0 01-.263-1.021l4-6.707a.75.75 0 011.027-.261.743.743 0 01.263 1.021l-4 6.707a.747.747 0 01-.645.365zm-5.324 0a.74.74 0 01-.383-.104.74.74 0 01-.262-1.02l2.492-4.18a.75.75 0 011.027-.26.742.742 0 01.263 1.021l-2.492 4.178a.753.753 0 01-.645.365z"/></g><defs><clipPath id="clip0"><path fill="#fff" transform="translate(.66 .725)" d="M0 0h39v27H0z"/></clipPath></defs></svg>