<svg width="37" height="47" fill="none" xmlns="http://www.w3.org/2000/svg"><path d="M15.296 42.01c0 .863-.704 1.56-1.569 1.56-.868 0-1.569-.7-1.569-1.56 0-.861.704-1.562 1.57-1.562.864 0 1.568.7 1.568 1.561z" fill="#E42320"/><path d="M22.629 46.153H4.825C2.525 46.153.652 44.29.652 42V15.437c0-2.289 1.873-4.152 4.173-4.152H22.63c2.3 0 4.172 1.863 4.172 4.152v26.561c0 2.292-1.872 4.155-4.172 4.155zM4.825 12.946a2.501 2.501 0 00-2.504 2.491v26.561a2.501 2.501 0 002.504 2.491H22.63a2.501 2.501 0 002.503-2.491V15.437a2.501 2.501 0 00-2.503-2.491H4.825z" fill="#E42320"/><path d="M21.098 39.233H6.355c-.921 0-1.67-.744-1.67-1.66v-20.76c0-.916.749-1.66 1.67-1.66h14.743c.921 0 1.67.744 1.67 1.66v20.76c0 .913-.749 1.66-1.67 1.66zM6.355 16.813v20.76h14.743v-20.76H6.355zM30.66 14.57a.83.83 0 01-.818-1 5.078 5.078 0 00-1.394-4.657 5.14 5.14 0 00-4.682-1.386.83.83 0 11-.34-1.628 6.81 6.81 0 016.204 1.838 6.732 6.732 0 011.847 6.172.836.836 0 01-.817.662zm5.316-1.419a.833.833 0 01-.835-.82 10.133 10.133 0 00-3.001-7.093 10.23 10.23 0 00-7.13-2.987.831.831 0 11.022-1.66 11.907 11.907 0 018.29 3.473 11.782 11.782 0 013.491 8.246.833.833 0 01-.823.841h-.014z" fill="#E42320"/></svg>