<svg width="38" height="38" fill="none" xmlns="http://www.w3.org/2000/svg"><path d="M10.521 37.614a4.544 4.544 0 01-3.244-1.331l-5.114-5.114a4.534 4.534 0 01-1.33-3.353 4.885 4.885 0 011.453-3.361l19.28-19.268a.906.906 0 011.28 1.281L3.568 25.732a3.085 3.085 0 00-.921 2.124 2.74 2.74 0 00.8 2.03l5.115 5.113a2.746 2.746 0 002.03.8 3.086 3.086 0 002.12-.921l19.28-19.267a.906.906 0 011.28 1.28L13.996 36.16a4.913 4.913 0 01-3.362 1.453c-.04.002-.075.002-.112.002z" fill="#E42320"/><path d="M33.028 16.761a.904.904 0 01-.88-1.127L35.3 3.165 22.823 6.308a.903.903 0 01-1.1-.659.903.903 0 01.66-1.1L36.33 1.035a.905.905 0 01.864.239.912.912 0 01.238.864L33.907 16.08a.908.908 0 01-.88.682z" fill="#E42320"/><path d="M31.755 16.49a.894.894 0 01-.64-.266L21.87 6.978a.906.906 0 011.28-1.28l9.244 9.245a.906.906 0 01-.64 1.547zm2.375-6.787a.894.894 0 01-.64-.266l-4.523-4.522a.906.906 0 011.281-1.28l4.522 4.518a.906.906 0 010 1.28.895.895 0 01-.64.27zm-6.384 27.911c-.106 0-.214-.006-.323-.02-.689-.085-1.362-.424-1.894-.952l-6.568-6.567a.906.906 0 011.281-1.28l6.565 6.563c.241.242.543.402.83.435.121.015.342.018.48-.12l7.601-7.603c.236-.236.151-.846-.314-1.311l-6.561-6.563a.906.906 0 011.28-1.281l6.568 6.563c1.154 1.154 1.296 2.894.314 3.875l-7.6 7.6c-.43.429-1.021.661-1.659.661zM9.05 19.794a.894.894 0 01-.64-.266l-6.779-6.78c-.532-.532-.87-1.203-.952-1.894-.09-.761.142-1.483.64-1.982l7.601-7.6c.5-.496 1.22-.729 1.98-.635.69.084 1.361.422 1.893.951l6.568 6.566a.906.906 0 01-1.281 1.281l-6.568-6.566c-.241-.242-.543-.402-.827-.435-.121-.015-.342-.018-.484.12l-7.603 7.603c-.14.139-.136.362-.121.483.033.284.193.586.435.828l6.779 6.778a.906.906 0 010 1.28.897.897 0 01-.64.269z" fill="#E42320"/><path d="M10.77 8.15a1.817 1.817 0 11-2.57 2.57 1.817 1.817 0 012.57-2.57zm.924 23.06a.906.906 0 01-.64-1.546l13.56-13.558a.906.906 0 011.28 1.28l-13.56 13.56a.894.894 0 01-.64.265z" fill="#E42320"/></svg>