<svg width="44" height="28" fill="none" xmlns="http://www.w3.org/2000/svg"><g clip-path="url(#clip0)" fill="#E42320"><path d="M36.976 27.578a.807.807 0 01-.715-.43.798.798 0 01.341-1.081l4.732-2.462a.459.459 0 00.118-.086.645.645 0 00.175-.304.89.89 0 00.03-.211l.035-6.55a.893.893 0 00-.215-.585.727.727 0 00-.21-.166.57.57 0 00-.231-.064l-6.078-.334a.804.804 0 01-.76-.844.804.804 0 01.849-.755l6.078.333c.306.016.604.1.878.24.255.132.487.313.685.537.197.225.347.478.45.753.107.289.16.585.16.89l-.035 6.553a2.4 2.4 0 01-.32 1.183 2.198 2.198 0 01-.864.828l-4.732 2.462a.766.766 0 01-.371.093z"/><path d="M36.373 27.725c-.045 0-.088 0-.134-.005l-13.905-.881a2.158 2.158 0 01-.879-.249 2.308 2.308 0 01-.685-.545 2.526 2.526 0 01-.613-1.642l-.008-6.641c0-.313.057-.612.167-.895.11-.28.269-.528.476-.742a2.087 2.087 0 011.633-.647l13.946.804c.309.017.607.1.89.244.265.136.496.32.698.55a2.51 2.51 0 01.62 1.669l-.024 6.705a2.45 2.45 0 01-.174.9c-.113.28-.277.531-.487.74a2.07 2.07 0 01-.736.488 2.151 2.151 0 01-.785.147zM22.304 17.078a.426.426 0 00-.174.035.548.548 0 00-.178.12.661.661 0 00-.137.216.844.844 0 00-.056.31l.008 6.641a.925.925 0 00.223.601.7.7 0 00.218.174.56.56 0 00.228.067l13.938.88a.513.513 0 00.363-.158.648.648 0 00.142-.218.884.884 0 00.059-.31l.024-6.702a.925.925 0 00-.22-.609.832.832 0 00-.226-.179.58.58 0 00-.236-.064l-13.976-.804zm7.483-2.051a.8.8 0 01-.376-1.511.588.588 0 00.231-.224.815.815 0 00.105-.403l.024-6.703a.927.927 0 00-.22-.609.833.833 0 00-.226-.179.58.58 0 00-.236-.064L14.845 4.53h-.03a.258.258 0 00-.053.006c-.011.002-.03.005-.046.01l-.054.02a.762.762 0 01-.26.063.808.808 0 01-.728-.366v-.008a.633.633 0 01-.054-.104l-.008-.019a.797.797 0 01.185-.865.785.785 0 01.228-.15l.006-.002 5.06-2.2a1.932 1.932 0 01.693-.166c.08-.005.161-.005.244 0l13.922.767c.306.016.604.098.878.24.255.13.487.312.685.537.197.224.347.478.45.753.107.288.16.584.16.889l-.035 6.553a2.4 2.4 0 01-.32 1.183 2.198 2.198 0 01-.864.828l-4.73 2.46c-.131.04-.26.069-.387.069zM18.027 3.102l11.153.63c.31.016.607.099.89.243.266.136.497.32.698.55a2.513 2.513 0 01.62 1.669l-.023 6.31 2.78-1.447a.462.462 0 00.119-.086.639.639 0 00.175-.304.89.89 0 00.03-.211l.034-6.55a.893.893 0 00-.215-.585.725.725 0 00-.21-.166.567.567 0 00-.23-.064l-13.946-.764h-.027a.209.209 0 00-.04.006.351.351 0 00-.067.016l-.038.013-1.704.74z"/><path d="M29.186 15.175c-.046 0-.089 0-.134-.006l-14.174-.881a2.182 2.182 0 01-.882-.248 2.312 2.312 0 01-.685-.545 2.528 2.528 0 01-.613-1.643L12.69 5.21c0-.313.057-.612.167-.895a2.22 2.22 0 011.206-1.239c.285-.115.586-.168.903-.15l14.214.804c.31.016.608.1.89.243.266.137.497.32.698.55a2.511 2.511 0 01.62 1.669l-.023 6.706a2.45 2.45 0 01-.175.9c-.113.28-.276.531-.486.74a2.093 2.093 0 01-.736.488c-.253.101-.513.15-.782.15zM14.848 4.527a.43.43 0 00-.175.034.548.548 0 00-.177.12.662.662 0 00-.137.217.844.844 0 00-.056.31l.008 6.64a.925.925 0 00.223.602.7.7 0 00.217.173.56.56 0 00.229.067l14.206.881a.512.512 0 00.363-.158.646.646 0 00.142-.218.883.883 0 00.06-.31l.023-6.703a.925.925 0 00-.22-.609.833.833 0 00-.226-.178.58.58 0 00-.236-.064l-14.244-.804zM1.944 15.957a.81.81 0 01-.738-.478.797.797 0 01.413-1.055h.003l5.065-2.203a1.926 1.926 0 01.693-.165 1.67 1.67 0 01.245 0l3.436.189a.804.804 0 01.76.844.805.805 0 01-.848.755l-3.437-.194H7.48a.206.206 0 00-.04.005.282.282 0 00-.068.016l-.037.013-4.587 1.995a.815.815 0 01-.368.176c-.016.005-.092.027-.13.04a.785.785 0 01-.306.062z"/><path d="M16.525 26.497c-.046 0-.089 0-.135-.006l-13.905-.878a2.158 2.158 0 01-.879-.248 2.31 2.31 0 01-.685-.545 2.528 2.528 0 01-.612-1.643l-.011-6.646c0-.313.056-.612.166-.895.11-.28.27-.528.476-.742a2.094 2.094 0 011.634-.647l13.945.805c.31.016.608.098.89.243.266.136.497.32.698.55a2.516 2.516 0 01.62 1.669l-.023 6.705a2.45 2.45 0 01-.175.9 2.19 2.19 0 01-.486.74 2.08 2.08 0 01-.736.488c-.253.102-.514.15-.782.15zM2.455 15.85a.41.41 0 00-.174.035.549.549 0 00-.177.12.662.662 0 00-.138.216.846.846 0 00-.056.31l.008 6.641a.925.925 0 00.223.601.701.701 0 00.218.174c.075.04.15.061.228.066l13.938.881a.513.513 0 00.363-.158.645.645 0 00.142-.218.884.884 0 00.059-.31l.024-6.702a.927.927 0 00-.22-.609.83.83 0 00-.226-.18.58.58 0 00-.236-.063L2.456 15.85z"/></g><defs><clipPath id="clip0"><path fill="#fff" transform="translate(.298 .725)" d="M0 0h43v27H0z"/></clipPath></defs></svg>